<?xml version="1.0" standalone="no"?>
<!DOCTYPE svg PUBLIC "-//W3C//DTD SVG 1.1//EN" "http://www.w3.org/Graphics/SVG/1.1/DTD/svg11.dtd">
<svg xmlns="http://www.w3.org/2000/svg">
<defs >
<font id="NunitoSans" horiz-adv-x="567" ><font-face
    font-family="Nunito Sans 12pt ExtraLight 12pt Medium"
    units-per-em="1000"
    panose-1="0 0 0 0 0 0 0 0 0 0"
    ascent="1011"
    descent="-353"
    alphabetic="0" />
<glyph unicode=" " horiz-adv-x="260" />
<glyph unicode="!" horiz-adv-x="233" d="M81 192L134 705H246L137 192H81ZM23 0L40 111H151L134 0H23Z" />
<glyph unicode="&quot;" horiz-adv-x="404" d="M112 425L133 705H240L173 425H112ZM290 425L311 705H418L351 425H290Z" />
<glyph unicode="#" horiz-adv-x="600" d="M47 0L112 180H27L37 243H134L214 470H93L103 534H236L297 705H365L304 534H456L517 705H586L525 534H609L599 470H503L422 243H543L533 180H401L336 0H267L331 180H180L116 0H47ZM202 243H354L434 470H282L202 243Z" />
<glyph unicode="$" horiz-adv-x="600" d="M215 -115L235 12L248 -5Q182 0 124 20T19 80L55 153Q110 110 166 93T289 75Q336 75 373 88T431 126T453 189Q453 218 442 238T404 274T330 302L239 325Q193 338 159 360T105 418T86 504Q86 571 122 617T220 687T355 710L344
698L363 820H439L418 697L412 705Q461 698 506 677T587 619L551 550Q507 594 456 612T351 630Q272 630 226 599T179 511Q179 463 203 440T275 403L366 379Q459 354 502 310T546 199Q546 134 511 90T419 21T293 -5L311 13L291 -115H215Z" />
<glyph unicode="%" horiz-adv-x="933" d="M251 -27L194 14L717 731L773 689L251 -27ZM240 281Q192 281 159 301T107 357T89 444Q89 518 112 579T181 676T291 712Q339 712 372 693T424 637T442 549Q442 475 419 414T350 317T240 281ZM240 344Q281 344 308 372T349
446T365 546Q367 601 347 625T291 649Q250 649 223 622T182 548T166 447Q164 392 184 368T240 344ZM676 -9Q629 -9 595 11T544 67T526 153Q526 227 549 288T617 386T727 422Q775 422 809 402T860 346T878 259Q878 184 855 123T787 27T676 -9ZM676 54Q717 54 744
81T786 155T802 256Q803 311 783 335T728 359Q687 359 660 331T618 257T602 157Q600 102 620 78T676 54Z" />
<glyph unicode="&amp;" horiz-adv-x="701" d="M256 -9Q192 -9 145 10T73 65T48 150Q48 190 63 225T104 289T163 343T230 386L266 406L252 387Q230 414 216 439T196 489T190 535Q190 588 215 628T284 691T386 714Q431 714 464 698T516 652T534 583Q534 534 510
497T444 430T350 370L352 394L504 191H486Q517 232 540 291T576 415H654Q640 332 609 260T534 134L533 159L657 0H552L477 99L499 98Q452 48 391 20T256 -9ZM266 65Q325 65 371 87T455 155L451 128L277 355L310 352L277 333Q239 311 208 286T158 231T139 161Q139
115 171 90T266 65ZM382 646Q334 646 305 617T275 542Q275 524 280 507T296 471T328 424L307 425Q361 454 393 477T441 525T456 579Q456 610 436 628T382 646Z" />
<glyph unicode="&apos;" horiz-adv-x="226" d="M112 425L133 705H240L173 425H112Z" />
<glyph unicode="(" horiz-adv-x="326" d="M156 -193Q128 -115 113 -35T98 124Q98 238 123 346T194 549T299 719L362 688Q311 601 274 508T216 314T196 99Q196 57 199 14T208 -74T222 -168L156 -193Z" />
<glyph unicode=")" horiz-adv-x="326" d="M33 -193L-30 -162Q21 -75 58 18T116 212T137 427Q137 470 134 513T124 601T109 694L176 719Q205 641 219 561T234 402Q234 289 209 181T138 -23T33 -193Z" />
<glyph unicode="*" horiz-adv-x="450" d="M203 350L145 384L234 525L247 506L79 499V567L247 559L234 541L145 682L204 716L277 572H266L339 716L397 682L308 542L296 559L464 567V499L296 506L308 525L397 384L339 350L266 494H277L203 350Z" />
<glyph unicode="+" horiz-adv-x="600" d="M233 40L266 253H58L68 321H277L310 528H380L347 321H556L546 253H336L303 40H233Z" />
<glyph unicode="," horiz-adv-x="233" d="M55 -119L19 -80Q40 -62 51 -46T69 -15T78 20L101 0H22L40 111H151L137 25Q133 -4 124 -28T99 -74T55 -119Z" />
<glyph unicode="-" horiz-adv-x="427" d="M69 229L81 303H365L353 229H69Z" />
<glyph unicode="." horiz-adv-x="233" d="M22 0L40 111H151L133 0H22Z" />
<glyph unicode="/" horiz-adv-x="290" d="M2 -67L-63 -35L317 755L383 723L2 -67Z" />
<glyph unicode="0" horiz-adv-x="600" d="M288 -9Q179 -9 122 58T64 251Q64 395 98 498T196 658T347 714Q421 714 470 684T545 596T571 455Q571 311 537 207T439 47T288 -9ZM293 70Q378 70 428 172T479 473Q480 555 446 595T342 635Q258 635 207 533T156 232Q156
151 190 111T293 70Z" />
<glyph unicode="1" horiz-adv-x="600" d="M82 0L95 79H255L342 626L394 622L203 513L172 586L381 705H447L348 79H498L486 0H82Z" />
<glyph unicode="2" horiz-adv-x="600" d="M54 0L65 69L336 322Q374 358 403 392T448 461T465 534Q465 581 433 607T344 634Q293 634 246 614T151 555L121 627Q154 654 192 674T272 704T359 714Q419 714 464 693T533 634T558 547Q558 490 536 442T477 351T392 266L157
52L156 79H515L502 0H54Z" />
<glyph unicode="3" horiz-adv-x="600" d="M277 -9Q234 -9 190 -1T105 26T31 76L71 145Q120 102 170 87T277 71Q321 71 355 87T409 135T430 209Q430 259 396 288T299 318H196L208 396H305Q349 396 385 412T443 458T464 531Q464 578 431 606T343 634Q292 634 241
615T146 556L114 627Q162 670 225 692T353 714Q418 714 463 691T531 629T555 542Q556 494 535 455T476 390T389 354V365Q432 356 461 333T505 278T521 205Q521 144 490 95T404 19T277 -9Z" />
<glyph unicode="4" horiz-adv-x="600" d="M332 0L356 147H34L44 216L459 705H536L460 226H563L551 147H449L425 0H332ZM368 226L426 594H451L119 201L121 226H368Z" />
<glyph unicode="5" horiz-adv-x="600" d="M286 -9Q247 -9 206 -1T126 26T57 76L96 145Q144 102 189 87T286 71Q334 71 372 92T433 151T456 235Q456 293 422 328T328 364Q280 364 240 343T166 283H100L167 705H581L569 626H246L203 359H177Q209 399 257 421T356
443Q410 443 453 420T521 353T547 242Q547 166 512 110T417 22T286 -9Z" />
<glyph unicode="6" horiz-adv-x="600" d="M307 -9Q235 -9 183 23T102 114T73 253Q73 352 94 436T157 582T260 679T401 714Q438 714 474 704T543 674T601 626L561 558Q525 597 483 615T394 634Q344 634 303 611T232 546T184 442T162 305L159 275H149Q157 328 188
366T263 424T355 444Q412 444 455 418T523 346T548 245Q548 173 517 116T432 25T307 -9ZM303 68Q350 68 385 90T440 152T460 238Q460 277 443 305T397 350T329 367Q283 367 248 345T193 284T173 197Q173 159 189 130T236 85T303 68Z" />
<glyph unicode="7" horiz-adv-x="600" d="M67 0L514 664L513 626H124L137 705H608L597 636L173 0H67Z" />
<glyph unicode="8" horiz-adv-x="600" d="M269 -9Q199 -9 147 12T65 72T35 164Q35 219 59 264T127 337T224 368L221 354Q184 363 158 384T118 436T104 507Q104 574 138 620T230 690T363 714Q428 714 477 693T553 635T581 545Q581 496 559 454T498 385T410 351L412
366Q453 360 483 339T530 286T547 209Q547 138 511 90T413 16T269 -9ZM273 66Q359 66 408 103T458 214Q458 267 418 293T310 319Q225 319 174 283T123 174Q123 120 164 93T273 66ZM323 395Q374 395 411 412T470 460T492 535Q492 585 457 611T360 638Q281 638 237
603T192 500Q192 449 227 422T323 395Z" />
<glyph unicode="9" horiz-adv-x="600" d="M240 -9Q202 -9 164 1T93 31T34 79L73 147Q111 109 153 90T242 71Q292 71 332 94T403 160T452 264T473 401L476 431L486 430Q478 378 447 340T371 281T279 261Q223 261 180 287T112 359T87 460Q87 533 118 590T204 680T328
714Q400 714 452 682T533 592T562 452Q562 358 542 275T482 128T381 28T240 -9ZM305 338Q353 338 388 360T442 422T462 508Q462 547 445 576T399 621T332 638Q286 638 251 615T195 554T175 467Q175 429 192 400T238 355T305 338Z" />
<glyph unicode=":" horiz-adv-x="233" d="M82 377L100 487H211L193 377H82ZM23 0L41 111H151L134 0H23Z" />
<glyph unicode=";" horiz-adv-x="233" d="M54 -119L19 -80Q39 -62 50 -46T68 -15T77 20L101 0H22L39 111H150L137 25Q133 -4 124 -28T99 -74T54 -119ZM82 377L100 487H210L193 377H82Z" />
<glyph unicode="&lt;" horiz-adv-x="600" d="M510 35L57 252L68 323L591 540L578 461L93 260L100 305L522 105L510 35Z" />
<glyph unicode="=" horiz-adv-x="600" d="M73 353L83 421H571L561 353H73ZM42 154L52 221H540L530 154H42Z" />
<glyph unicode="&gt;" horiz-adv-x="600" d="M22 35L35 113L521 314L513 268L91 469L103 540L556 323L545 252L22 35Z" />
<glyph unicode="?" horiz-adv-x="447" d="M173 190L178 223Q183 257 192 285T224 343T287 409Q306 426 327 446T364 492T380 551Q380 575 370 594T339 623T283 634Q233 634 185 614T95 556L63 626Q96 656 134 675T214 704T298 714Q354 714 393 694T452 639T473
564Q473 521 454 485T407 419T347 367Q309 337 287 312T255 263T237 215L230 190H173ZM116 0L134 111H244L226 0H116Z" />
<glyph unicode="@" horiz-adv-x="947" d="M496 -164Q400 -164 322 -134T187 -46T101 92T70 272Q70 371 101 452T191 592T331 682T510 714Q626 714 713 668T849 538T898 344Q898 257 874 193T807 94T707 59Q647 59 616 93T587 187L609 185Q583 123 538 91T440 59Q362
59 319 108T276 242Q276 315 304 372T381 463T492 496Q546 496 581 469T626 393H613L630 487H702L658 232Q655 218 654 206T653 183Q653 150 667 134T711 118Q749 118 777 146T820 225T836 344Q836 438 796 507T682 614T509 653Q398 653 315 606T185 473T138 272Q138
155 182 71T306 -57T496 -102Q575 -102 639 -78T748 -9L782 -61Q750 -94 706 -117T609 -152T496 -164ZM451 122Q494 122 528 148T581 220T600 324Q600 379 576 406T502 433Q459 433 425 409T372 341T352 242Q352 184 378 153T451 122Z" />
<glyph unicode="A" horiz-adv-x="733" d="M-24 0L401 705H480L680 0H590L538 196L571 176H148L191 194L77 0H-24ZM428 600L215 236L193 252H551L527 235L430 600H428Z" />
<glyph unicode="B" horiz-adv-x="679" d="M46 0L158 705H431Q505 705 553 685T624 627T647 539Q647 462 599 412T470 351V366Q514 358 546 337T595 283T612 209Q612 141 583 94T497 24T361 0H46ZM148 73H359Q392 73 417 79T462 96T494 124T513 163T520 212Q520
239 512 259T485 292T442 313T383 320H187L148 73ZM199 394H393Q469 394 512 429T556 530Q556 580 522 606T418 632H237L199 394Z" />
<glyph unicode="C" horiz-adv-x="674" d="M383 -9Q293 -9 224 25T115 130T76 308Q76 394 101 468T173 597T289 683T444 714Q517 714 577 691T676 626L635 551Q595 591 548 610T441 630Q357 630 298 589T207 475T175 310Q175 226 200 174T274 99T392 75Q445 75
491 93T586 151L618 78Q587 50 550 31T470 1T383 -9Z" />
<glyph unicode="D" horiz-adv-x="747" d="M46 0L158 705H369Q531 705 619 628T707 409Q707 324 683 250T610 120T485 32T307 0H46ZM151 79H309Q390 79 447 104T540 175T593 280T610 408Q610 514 550 570T369 626H238L151 79Z" />
<glyph unicode="E" horiz-adv-x="586" d="M47 0L158 705H609L597 629H236L199 396H539L527 320H187L148 76H509L497 0H47Z" />
<glyph unicode="F" horiz-adv-x="551" d="M47 0L158 705H601L589 629H240L202 393H530L518 317H190L140 0H47Z" />
<glyph unicode="G" horiz-adv-x="729" d="M392 -9Q295 -9 224 26T114 129T75 297Q75 390 100 466T174 598T292 684T449 714Q501 714 545 704T625 674T686 627L645 553Q603 593 554 612T444 631Q359 631 299 590T205 474T172 300Q172 184 231 129T404 73Q451 73
491 81T568 103L541 57L581 298H405L416 370H671L618 34Q589 21 552 12T474 -3T392 -9Z" />
<glyph unicode="H" horiz-adv-x="764" d="M46 0L158 705H251L202 397H610L659 705H752L640 0H547L598 318H189L139 0H46Z" />
<glyph unicode="I" horiz-adv-x="262" d="M46 0L158 705H251L139 0H46Z" />
<glyph unicode="J" horiz-adv-x="331" d="M-40 -8L-39 70L24 74Q58 76 83 90T124 132T146 199L226 705H319L237 188Q227 129 203 88T136 23T28 -4L-40 -8Z" />
<glyph unicode="K" horiz-adv-x="634" d="M46 0L158 705H251L200 386H202L584 705H706L265 336V383L613 0H503L194 333H192L139 0H46Z" />
<glyph unicode="L" horiz-adv-x="548" d="M46 0L158 705H251L152 80H505L493 0H46Z" />
<glyph unicode="M" horiz-adv-x="858" d="M48 0L160 705H235L430 178H401L765 705H845L733 0H648L740 579H764L438 108H380L203 577H224L133 0H48Z" />
<glyph unicode="N" horiz-adv-x="741" d="M46 0L158 705H229L572 115H550L643 705H729L617 0H547L204 590H226L132 0H46Z" />
<glyph unicode="O" horiz-adv-x="771" d="M371 -9Q281 -9 215 26T112 129T75 295Q75 384 99 460T169 594T282 682T435 714Q525 714 591 679T694 576T731 411Q731 321 707 245T637 111T524 23T371 -9ZM373 73Q458 73 515 117T603 237T634 410Q634 522 581 577T432
632Q348 632 291 589T203 469T172 296Q172 183 226 128T373 73Z" />
<glyph unicode="P" horiz-adv-x="637" d="M46 0L158 705H417Q491 705 542 684T619 620T646 514Q646 441 616 388T526 307T379 278H183L139 0H46ZM195 353H385Q468 353 511 392T555 508Q555 571 518 600T408 629H239L195 353Z" />
<glyph unicode="Q" horiz-adv-x="771" d="M530 -204L467 -68Q453 -38 427 -24T359 -9L438 22Q466 22 487 15T525 -9T555 -55L609 -173L530 -204ZM371 -9Q281 -9 215 26T112 129T75 295Q75 384 99 460T169 594T282 682T435 714Q525 714 591 679T694 576T731 411Q731
321 707 245T637 111T524 23T371 -9ZM373 73Q458 73 515 117T603 237T634 410Q634 522 581 577T432 632Q348 632 291 589T203 469T172 296Q172 183 226 128T373 73Z" />
<glyph unicode="R" horiz-adv-x="673" d="M46 0L158 705H415Q492 705 543 682T620 616T646 514Q646 441 612 393T520 320T387 298V311H405Q449 311 477 286T524 214L606 0H512L429 218Q418 246 404 262T369 286T315 294H186L140 0H46ZM197 366H391Q468 366 511
403T555 508Q555 568 519 598T404 629H239L197 366Z" />
<glyph unicode="S" horiz-adv-x="618" d="M298 -9Q247 -9 198 -1T106 27T27 77L64 147Q101 119 139 102T219 78T306 71Q358 71 396 85T456 127T478 190Q478 216 466 237T427 273T353 299L248 324Q178 341 136 383T94 501Q94 550 114 589T172 657T257 699T361 714Q428
714 493 694T606 626L569 557Q524 598 470 616T359 634Q309 634 270 618T209 574T187 507Q187 459 211 436T285 401L389 375Q483 355 527 310T571 201Q571 149 550 110T491 45T404 5T298 -9Z" />
<glyph unicode="T" horiz-adv-x="607" d="M218 0L318 626H65L77 705H676L664 626H411L311 0H218Z" />
<glyph unicode="U" horiz-adv-x="730" d="M337 -9Q270 -9 219 10T134 67T88 164T89 299L153 705H246L180 291Q163 183 204 128T342 73Q437 73 491 121T562 274L630 705H723L654 272Q640 179 602 117T498 23T337 -9Z" />
<glyph unicode="V" horiz-adv-x="694" d="M267 0L70 705H163L333 77H298L667 705H770L348 0H267Z" />
<glyph unicode="W" horiz-adv-x="1104" d="M237 0L101 705H192L305 83H269L585 705H658L772 83H740L1052 705H1149L789 0H709L597 594H618L316 0H237Z" />
<glyph unicode="X" horiz-adv-x="655" d="M-32 0L305 379V342L92 705H194L363 409H341L597 705H711L387 338V381L611 0H508L327 314H355L82 0H-32Z" />
<glyph unicode="Y" horiz-adv-x="601" d="M215 0L273 365L283 303L57 705H158L330 397H307L578 705H689L335 303L366 365L308 0H215Z" />
<glyph unicode="Z" horiz-adv-x="593" d="M9 0L20 69L529 659L530 626H108L121 705H630L619 637L110 46L109 79H545L533 0H9Z" />
<glyph unicode="[" horiz-adv-x="324" d="M41 -180L181 705H388L377 634H261L144 -109H260L248 -180H41Z" />
<glyph unicode="\" horiz-adv-x="290" d="M191 -67L59 741L130 755L262 -52L191 -67Z" />
<glyph unicode="]" horiz-adv-x="324" d="M-59 -180L-48 -109H69L186 634H70L82 705H289L149 -180H-59Z" />
<glyph unicode="^" horiz-adv-x="600" d="M32 140L326 628H396L536 140H466L336 594H381L110 140H32Z" />
<glyph unicode="_" horiz-adv-x="500" d="M-27 -58L-18 0H441L432 -58H-27Z" />
<glyph unicode="`" horiz-adv-x="500" d="M265 552L124 754H218L329 552H265Z" />
<glyph unicode="a" horiz-adv-x="533" d="M198 -9Q155 -9 119 10T60 62T37 138Q37 190 66 221T156 268T312 284H393L384 226H322Q249 226 207 219T147 193T128 144Q128 102 156 80T222 57Q257 57 287 73T339 118T367 190L386 311Q395 366 371 395T285 425Q241
425 200 413T120 373L96 439Q120 457 152 469T222 489T296 496Q367 496 408 470T465 397T470 287L424 0H338L355 109H365Q352 69 326 43T266 4T198 -9Z" />
<glyph unicode="b" horiz-adv-x="587" d="M300 -9Q242 -9 197 20T135 107H140L124 0H35L147 705H238L187 386H176Q194 420 220 445T282 483T358 496Q414 496 456 471T521 399T545 287Q545 206 516 139T433 32T300 -9ZM288 63Q341 63 377 92T433 172T453 284Q453
352 420 388T327 424Q274 424 237 395T181 315T162 203Q162 135 195 99T288 63Z" />
<glyph unicode="c" horiz-adv-x="465" d="M261 -9Q187 -9 139 18T67 95T43 208Q43 262 58 313T106 406T188 471T307 496Q356 496 400 481T470 438L439 374Q414 398 382 410T311 423Q264 423 231 405T177 355T146 287T136 209Q136 143 168 104T272 64Q302 64 335
76T397 113L422 47Q403 29 376 17T320 -2T261 -9Z" />
<glyph unicode="d" horiz-adv-x="587" d="M229 -9Q173 -9 131 16T66 89T42 200Q42 281 71 348T154 456T286 496Q344 496 389 467T452 380H445L496 705H587L475 0H385L402 101H410Q393 67 366 43T305 5T229 -9ZM260 63Q313 63 350 92T406 172T425 284Q425 352 392
388T299 424Q246 424 210 395T154 315T134 203Q134 135 167 99T260 63Z" />
<glyph unicode="e" horiz-adv-x="535" d="M272 -9Q202 -9 151 17T71 92T43 207Q43 287 75 352T166 457T305 496Q382 496 427 461T488 369T495 246L492 223H114L122 281H440L422 267Q429 313 419 349T381 408T304 430Q252 430 217 407T163 347T137 270L132 245Q124
190 138 149T188 86T278 63Q324 63 363 76T435 117L462 56Q429 25 378 8T272 -9Z" />
<glyph unicode="f" horiz-adv-x="340" d="M63 0L129 417H34L46 487H151L138 475L145 521Q154 577 180 617T253 681T365 706L417 709V639L367 636Q328 634 301 621T258 583T236 520L229 478L222 487H368L357 417H220L154 0H63Z" />
<glyph unicode="g" horiz-adv-x="590" d="M250 -189Q181 -189 126 -170T27 -119L57 -53Q87 -73 114 -87T172 -109T238 -117Q302 -117 341 -86T391 11L409 122L417 121Q401 87 375 62T313 25T237 12Q179 12 135 36T67 105T43 211Q43 267 59 318T108 410T185 473T289
496Q349 496 394 467T457 380L449 381L466 487H555L480 16Q470 -52 441 -97T364 -166T250 -189ZM262 84Q316 84 353 113T409 190T429 294Q430 355 397 389T301 424Q248 424 211 395T154 319T135 215Q134 153 167 119T262 84Z" />
<glyph unicode="h" horiz-adv-x="572" d="M35 0L147 705H238L186 379H175Q200 435 247 465T362 496Q416 496 452 475T504 408T509 294L462 0H371L418 293Q425 337 418 365T389 408T332 422Q285 422 251 403T196 348T168 263L126 0H35Z" />
<glyph unicode="i" horiz-adv-x="237" d="M122 604L138 702H246L230 604H122ZM34 0L112 487H203L125 0H34Z" />
<glyph unicode="j" horiz-adv-x="241" d="M125 604L141 702H249L233 604H125ZM-108 -193L-114 -124L-69 -120Q-23 -116 2 -90T36 -13L115 487H206L128 -7Q121 -51 106 -84T68 -140T12 -175T-64 -190L-108 -193Z" />
<glyph unicode="k" horiz-adv-x="508" d="M35 0L146 705H237L169 272H171L421 487H534L235 226L237 273L480 0H372L164 229H162L126 0H35Z" />
<glyph unicode="l" horiz-adv-x="301" d="M190 -9Q114 -9 81 34T60 162L146 705H237L151 163Q146 130 151 109T174 77T218 67Q230 67 241 68T265 72L251 -1Q237 -5 221 -7T190 -9Z" />
<glyph unicode="m" horiz-adv-x="861" d="M37 0L114 487H203L185 377L175 378Q202 436 247 466T348 496Q405 496 441 465T487 374L475 378Q500 434 546 465T657 496Q708 496 743 475T792 409T796 294L749 0H658L705 297Q712 339 706 367T680 408T627 422Q588 422
558 403T508 349T480 263L438 0H347L394 297Q401 339 395 367T369 408T317 422Q287 422 263 411T220 380T188 331T170 263L128 0H37Z" />
<glyph unicode="n" horiz-adv-x="572" d="M35 0L112 487H201L184 379H175Q200 435 247 465T362 496Q416 496 452 475T504 408T509 294L462 0H371L418 293Q425 337 418 365T389 408T332 422Q285 422 251 403T196 348T168 263L126 0H35Z" />
<glyph unicode="o" horiz-adv-x="560" d="M258 -9Q191 -9 143 17T69 91T43 206Q43 269 61 322T115 414T197 474T302 496Q370 496 418 470T492 396T518 280Q518 218 499 165T446 73T364 13T258 -9ZM261 63Q314 63 350 92T406 172T426 284Q426 352 393 388T300 424Q247
424 210 395T154 315T135 203Q135 135 168 99T261 63Z" />
<glyph unicode="p" horiz-adv-x="587" d="M6 -180L112 487H201L185 386H176Q194 420 220 445T282 483T358 496Q415 496 456 471T521 399T545 286Q545 206 516 139T433 32T300 -9Q242 -9 197 20T135 107H143L97 -180H6ZM288 63Q341 63 377 92T433 172T453 284Q453
352 420 388T327 424Q274 424 237 395T181 315T162 203Q162 135 195 99T288 63Z" />
<glyph unicode="q" horiz-adv-x="587" d="M356 -180L400 101H410Q393 67 366 43T305 5T229 -9Q173 -9 131 16T66 89T42 200Q42 281 71 348T154 456T286 496Q344 496 389 467T452 380L446 381L463 487H552L447 -180H356ZM260 63Q313 63 350 92T406 172T425 284Q425
352 392 388T299 424Q246 424 210 395T154 315T134 203Q134 135 167 99T260 63Z" />
<glyph unicode="r" horiz-adv-x="365" d="M35 0L112 487H201L182 371H172Q190 424 234 458T346 497L386 500V421L325 415Q273 411 241 392T193 341T168 265L127 0H35Z" />
<glyph unicode="s" horiz-adv-x="483" d="M224 -9Q164 -9 113 7T27 51L59 112Q83 94 110 82T166 65T225 59Q277 59 306 79T336 136Q336 160 320 176T274 199L179 221Q129 232 100 264T70 342Q70 386 94 420T165 475T274 496Q307 496 339 489T399 469T446 435L415
375Q386 402 349 415T270 428Q216 428 186 406T155 347Q155 324 168 308T212 285L306 263Q361 250 390 220T420 143Q420 95 396 61T327 9T224 -9Z" />
<glyph unicode="t" horiz-adv-x="358" d="M242 -9Q184 -9 146 13T93 76T87 170L126 417H31L42 487H137L160 635H251L228 487H380L369 417H217L179 179Q169 119 191 94T261 68Q277 68 292 71T319 78L327 9Q313 1 289 -4T242 -9Z" />
<glyph unicode="u" horiz-adv-x="565" d="M208 -9Q156 -9 120 12T68 79T63 194L110 487H201L154 194Q147 151 154 122T182 79T238 65Q282 65 315 85T369 140T397 224L439 487H530L453 0H364L381 108H391Q366 52 319 22T208 -9Z" />
<glyph unicode="v" horiz-adv-x="518" d="M178 0L46 487H140L242 71H215L453 487H550L262 0H178Z" />
<glyph unicode="w" horiz-adv-x="844" d="M165 0L59 487H148L229 72H203L420 487H493L575 72H553L767 487H862L601 0H516L427 427H474L249 0H165Z" />
<glyph unicode="x" horiz-adv-x="530" d="M-28 0L231 270L229 229L61 487H163L285 294H261L437 487H548L306 231L305 271L482 0H380L248 206L276 205L81 0H-28Z" />
<glyph unicode="y" horiz-adv-x="517" d="M60 -180L186 29L180 -9L45 487H138L241 70H213L452 487H550L154 -180H60Z" />
<glyph unicode="z" horiz-adv-x="466" d="M16 0L25 60L367 440L371 417H81L93 487H465L455 428L110 45L106 70H409L398 0H16Z" />
<glyph unicode="{" horiz-adv-x="361" d="M206 -180Q164 -180 138 -167T101 -130T95 -74L130 146Q136 186 126 204T76 226L46 228L56 297L87 300Q126 302 143 320T167 379L202 599Q211 652 240 678T319 705H425L413 634H342Q322 634 309 624T291 590L257 369Q252
333 234 309T194 274T150 262L149 266Q170 266 189 254T218 217T222 156L188 -65Q184 -88 193 -98T223 -109H296L285 -180H206Z" />
<glyph unicode="|" horiz-adv-x="271" d="M23 -180L163 705H254L114 -180H23Z" />
<glyph unicode="}" horiz-adv-x="361" d="M-58 -180L-47 -109H25Q46 -109 59 -99T76 -65L110 156Q116 193 133 216T174 252T218 264V260Q198 260 179 272T150 309T145 369L179 590Q183 614 174 624T144 634H70L82 705H161Q204 705 230 692T266 655T272 599L237
379Q231 340 241 321T292 299L321 297L311 228L280 226Q241 223 224 205T200 146L165 -74Q156 -126 127 -153T49 -180H-58Z" />
<glyph unicode="~" horiz-adv-x="600" d="M420 215Q398 215 376 221T334 238T294 258Q276 267 260 275T229 289T199 294Q168 294 147 276T109 229L59 262Q85 309 116 334T193 359Q216 359 238 353T282 336T322 316Q348 302 370 292T414 281Q446 281 467 299T505
346L555 312Q538 281 518 260T474 227T420 215Z" />
<glyph unicode="&#xa0;" horiz-adv-x="260" />
<glyph unicode="&#xa1;" horiz-adv-x="233" d="M-7 -180L97 296H153L106 -180H-7ZM82 377L100 487H210L193 377H82Z" />
<glyph unicode="&#xa2;" horiz-adv-x="600" d="M217 -115L238 18L251 1Q196 11 160 39T107 111T89 208Q89 259 103 307T146 395T221 460T330 491L308 463L332 607H407L384 467L372 492Q418 491 458 475T523 434L492 370Q467 395 434 407T361 420Q312 420 278 402T223
353T192 285T182 209Q182 147 214 108T323 68Q355 68 388 80T450 117L475 51Q453 30 421 17T356 -1T294 -4L313 14L292 -115H217Z" />
<glyph unicode="&#xa3;" horiz-adv-x="600" d="M9 0L21 78H115L154 320H59L70 387H165L184 507Q195 576 224 621T302 690T424 714Q486 714 539 692T625 635L584 567Q552 604 514 620T426 637Q362 637 324 605T277 511L257 387H434L423 320H247L208 78H529L517 0H9Z" />
<glyph unicode="&#xa4;" horiz-adv-x="600" d="M80 -27L35 19L109 94Q86 126 73 164T60 245Q60 288 72 326T109 396L35 472L80 517L154 441Q184 466 222 479T301 493Q342 493 379 480T447 443L519 518L565 471L492 397Q516 365 528 327T541 245Q541 202 528 164T491
93L565 19L520 -26L447 48Q417 24 380 11T301 -3Q260 -3 222 11T153 48L80 -27ZM300 74Q345 74 381 97T439 159T461 245Q461 293 440 331T382 393T300 416Q256 416 220 393T162 332T140 245Q140 198 161 159T219 97T300 74Z" />
<glyph unicode="&#xa5;" horiz-adv-x="600" d="M215 0L242 171H59L70 238H253L266 325H84L95 392H251L249 376L66 705H163L331 397H308L572 705H680L395 376L397 392H552L541 325H359L346 238H527L517 171H334L307 0H215Z" />
<glyph unicode="&#xa6;" horiz-adv-x="271" d="M110 372L163 705H254L201 372H110ZM23 -180L76 154H167L114 -180H23Z" />
<glyph unicode="&#xa7;" horiz-adv-x="550" d="M208 -189Q142 -189 89 -172T-4 -123L31 -62Q52 -80 79 -93T138 -114T205 -121Q247 -121 278 -106T325 -65T342 -6Q342 32 326 53T270 98L167 159Q130 181 105 206T67 258T54 316Q54 362 77 401T144 467L140 456Q134
471 130 487T126 525Q126 582 156 624T238 690T349 714Q405 714 455 699T543 649L513 589Q483 616 439 631T352 646Q310 646 279 631T232 590T215 530Q215 493 231 470T287 424L387 365Q426 343 451 318T490 266T503 208Q503 163 480 124T412 56L415 72Q423 57
427 40T431 2Q431 -57 401 -100T320 -166T208 -189ZM136 331Q136 310 146 292T174 256T220 222L311 169Q338 152 357 137T388 103L376 104Q398 124 409 148T420 194Q420 215 411 233T382 269T334 303L246 353Q220 370 201 386T170 421L182 423Q159 402 148 378T136
331Z" />
<glyph unicode="&#xa8;" horiz-adv-x="500" d="M351 606L364 699H457L443 606H351ZM173 606L187 699H280L266 606H173Z" />
<glyph unicode="&#xa9;" horiz-adv-x="815" d="M425 -9Q349 -9 283 18T167 95T91 210T63 353Q63 430 90 496T167 610T282 686T425 714Q502 714 568 687T682 611T758 496T786 353Q786 277 759 211T683 95T568 19T425 -9ZM439 137Q375 137 328 164T255 240T229 355Q229
421 254 468T327 542T439 568Q479 568 518 555T582 516L556 459Q532 482 502 492T444 503Q381 503 345 464T309 354Q309 284 345 243T444 202Q472 202 502 213T556 247L582 189Q557 166 518 152T439 137ZM425 37Q492 37 549 61T648 128T714 228T738 353Q738 420
715 477T649 577T549 644T425 668Q358 668 301 644T201 578T135 478T111 353Q111 286 134 229T200 128T300 61T425 37Z" />
<glyph unicode="&#xaa;" horiz-adv-x="330" d="M167 410Q139 410 117 422T81 454T68 500Q68 546 110 566T239 587H302L296 550H245Q203 550 178 545T142 530T130 504Q130 482 145 469T184 455Q206 455 226 465T260 493T278 533L289 602Q295 634 277 649T224 665Q196
665 172 659T122 636L105 680Q127 697 160 705T230 714Q273 714 301 698T341 654T348 586L321 416H262L271 470H268Q252 441 227 426T167 410Z" />
<glyph unicode="&#xab;" horiz-adv-x="453" d="M127 83L58 243L65 288L188 449L251 419L142 262L193 108L127 83ZM314 83L245 243L252 288L375 449L438 419L329 262L380 108L314 83Z" />
<glyph unicode="&#xac;" horiz-adv-x="600" d="M458 147L492 355H74L84 423H572L528 147H458Z" />
<glyph unicode="&#xad;" horiz-adv-x="427" d="M69 229L81 303H365L353 229H69Z" />
<glyph unicode="&#xae;" horiz-adv-x="815" d="M425 -9Q349 -9 283 18T167 95T91 210T63 353Q63 430 90 496T167 610T282 686T425 714Q502 714 568 687T682 611T758 496T786 353Q786 277 759 211T683 95T568 19T425 -9ZM425 37Q492 37 549 61T648 128T714 228T738
353Q738 420 715 477T649 577T549 644T425 668Q358 668 301 644T201 578T135 478T111 353Q111 286 134 229T200 128T300 61T425 37ZM278 142V564H453Q521 564 557 531T594 441Q594 384 558 354T455 323L469 333Q500 333 521 319T554 267L599 142H524L478 271Q469
295 452 303T409 312H338L352 322V142H278ZM351 369H443Q484 369 504 386T524 438Q524 473 504 490T443 507H351V369Z" />
<glyph unicode="&#xaf;" horiz-adv-x="500" d="M160 623L170 682H470L461 623H160Z" />
<glyph unicode="&#xb0;" horiz-adv-x="373" d="M237 412Q194 412 160 431T107 485T87 561Q87 603 106 637T160 690T237 710Q280 710 314 691T367 638T387 561Q387 519 367 485T314 432T237 412ZM237 470Q276 470 300 495T324 561Q324 601 300 626T237 652Q199
652 175 627T150 561Q150 521 174 496T237 470Z" />
<glyph unicode="&#xb1;" horiz-adv-x="600" d="M247 130L273 296H65L76 364H285L311 530H381L355 364H564L553 296H344L318 130H247ZM18 0L28 68H516L506 0H18Z" />
<glyph unicode="&#xb2;" horiz-adv-x="380" d="M59 282L68 338L228 482Q259 510 278 537T298 593Q299 618 282 631T234 645Q205 645 177 634T122 601L101 659Q123 676 147 686T197 703T252 709Q293 709 321 695T364 657T379 603Q378 556 350 519T275 441L143 324L142
347H356L346 282H59Z" />
<glyph unicode="&#xb3;" horiz-adv-x="380" d="M202 278Q159 278 118 290T48 330L78 383Q106 359 135 351T202 342Q236 342 259 359T284 410Q285 436 267 449T213 463H132L143 528H219Q256 528 280 545T306 594Q307 618 289 631T239 645Q209 645 180 635T123 603L102
659Q134 684 172 696T251 709Q312 709 346 681T381 607Q381 565 352 534T276 495L277 502Q303 497 321 483T349 449T358 406Q358 369 337 340T281 294T202 278Z" />
<glyph unicode="&#xb4;" horiz-adv-x="500" d="M266 552L400 754H497L331 552H266Z" />
<glyph unicode="&#xb5;" horiz-adv-x="600" d="M23 -180L129 487H220L174 194Q167 151 173 122T201 79T257 65Q302 65 334 85T388 140T417 224L458 487H549L472 0H384L401 109H407Q388 54 347 23T250 -9Q210 -9 181 7T138 53L143 55L114 -180H23Z" />
<glyph unicode="&#xb6;" horiz-adv-x="596" d="M177 -180L254 304Q200 304 162 327T102 389T81 477Q81 545 110 596T190 676T310 705H584L444 -180H373L503 637H378L248 -180H177Z" />
<glyph unicode="&#xb7;" horiz-adv-x="233" d="M56 211L74 322H184L167 211H56Z" />
<glyph unicode="&#xb8;" horiz-adv-x="500" d="M191 -193Q164 -193 140 -188T100 -173L119 -126Q136 -135 152 -139T191 -143Q219 -143 235 -134T252 -105Q252 -94 243 -88T217 -81Q207 -81 197 -82T170 -88L155 -72L184 20H239L214 -56L189 -48Q201 -45 213 -43T235
-41Q258 -41 275 -48T302 -69T312 -104Q312 -144 278 -168T191 -193Z" />
<glyph unicode="&#xb9;" horiz-adv-x="380" d="M88 282L98 347H195L241 640L288 641L155 567L127 627L269 705H326L269 347H349L338 282H88Z" />
<glyph unicode="&#xba;" horiz-adv-x="342" d="M215 411Q174 411 142 428T92 477T73 551Q73 602 94 638T150 694T227 714Q290 714 329 676T369 574Q369 524 349 488T293 431T215 411ZM216 461Q256 461 281 490T306 575Q306 618 284 641T226 665Q187 665 162 636T137
550Q137 507 158 484T216 461Z" />
<glyph unicode="&#xbb;" horiz-adv-x="453" d="M84 83L21 113L131 270L80 423L146 449L214 288L207 243L84 83ZM271 83L208 113L318 270L267 423L333 449L401 288L394 243L271 83Z" />
<glyph unicode="&#xbc;" horiz-adv-x="897" d="M88 282L98 347H195L241 640L288 641L155 567L127 627L269 705H326L269 347H349L338 282H88ZM253 -25L199 11L729 730L783 695L253 -25ZM703 0L715 80H524L533 135L776 423H844L800 145H858L847 80H790L777 0H703ZM725
145L757 340H778L598 127L597 145H725Z" />
<glyph unicode="&#xbd;" horiz-adv-x="942" d="M88 282L98 347H195L241 640L288 641L155 567L127 627L269 705H326L269 347H349L338 282H88ZM253 -25L199 11L729 730L783 695L253 -25ZM576 0L585 56L745 200Q776 228 795 255T815 311Q816 336 799 349T751 363Q722
363 694 352T639 319L618 377Q640 394 664 404T714 421T769 427Q810 427 838 413T881 375T896 321Q895 274 867 237T792 159L660 42L659 65H873L863 0H576Z" />
<glyph unicode="&#xbe;" horiz-adv-x="897" d="M202 278Q159 278 118 290T48 330L78 383Q106 359 135 351T202 342Q236 342 259 359T284 410Q285 436 267 449T213 463H132L143 528H219Q256 528 280 545T306 594Q307 618 289 631T239 645Q209 645 180 635T123 603L102
659Q134 684 172 696T251 709Q312 709 346 681T381 607Q381 565 352 534T276 495L277 502Q303 497 321 483T349 449T358 406Q358 369 337 340T281 294T202 278ZM253 -25L199 11L729 730L783 695L253 -25ZM703 0L715 80H524L533 135L776 423H844L800 145H858L847
80H790L777 0H703ZM725 145L757 340H778L598 127L597 145H725Z" />
<glyph unicode="&#xbf;" horiz-adv-x="447" d="M152 -189Q99 -189 60 -170T-1 -119T-23 -46Q-23 -9 -9 21T32 79T93 131Q129 158 152 180T188 225T207 274L215 297H272L267 269Q262 234 250 206T216 151T156 95Q117 63 94 35T70 -30Q70 -52 81 -70T113 -98T164
-109Q216 -109 264 -93T357 -40L388 -111Q357 -138 319 -155T239 -180T152 -189ZM201 376L218 487H329L311 376H201Z" />
<glyph unicode="&#xc0;" horiz-adv-x="733" d="M-24 0L401 705H480L680 0H590L538 196L571 176H148L191 194L77 0H-24ZM428 600L215 236L193 252H551L527 235L430 600H428ZM416 765L281 937H379L484 765H416Z" />
<glyph unicode="&#xc1;" horiz-adv-x="733" d="M-24 0L401 705H480L680 0H590L538 196L571 176H148L191 194L77 0H-24ZM428 600L215 236L193 252H551L527 235L430 600H428ZM416 765L547 937H649L484 765H416Z" />
<glyph unicode="&#xc2;" horiz-adv-x="733" d="M-24 0L401 705H480L680 0H590L538 196L571 176H148L191 194L77 0H-24ZM428 600L215 236L193 252H551L527 235L430 600H428ZM278 765L418 937H501L607 765H540L456 880L345 765H278Z" />
<glyph unicode="&#xc3;" horiz-adv-x="733" d="M-24 0L401 705H480L680 0H590L538 196L571 176H148L191 194L77 0H-24ZM428 600L215 236L193 252H551L527 235L430 600H428ZM286 780L236 783Q244 828 262 858T306 904T366 920Q395 920 421 907T470 880Q490 867
508 857T545 847Q575 847 593 866T621 923L671 920Q660 855 626 819T542 783Q512 783 487 796T438 824Q419 837 400 847T363 857Q333 857 315 838T286 780Z" />
<glyph unicode="&#xc4;" horiz-adv-x="733" d="M-24 0L401 705H480L680 0H590L538 196L571 176H148L191 194L77 0H-24ZM428 600L215 236L193 252H551L527 235L430 600H428ZM497 802L513 895H605L590 802H497ZM320 802L335 895H428L413 802H320Z" />
<glyph unicode="&#xc5;" horiz-adv-x="733" d="M-24 0L401 705H480L680 0H590L538 196L571 176H148L191 194L77 0H-24ZM428 600L215 236L193 252H551L527 235L430 600H428ZM465 757Q431 757 404 773T360 816T344 875Q344 908 360 934T403 976T465 992Q499 992
526 977T569 935T585 875Q585 842 569 816T526 773T465 757ZM465 804Q496 804 515 824T535 875Q535 905 516 925T465 945Q434 945 414 925T394 875Q394 845 414 825T465 804Z" />
<glyph unicode="&#xc6;" horiz-adv-x="984" d="M-59 0L483 705H1006L994 629H545L573 659L589 371L558 396H937L925 320H563L590 344L606 47L575 76H907L895 0H527L516 203L545 176H155L195 201L44 0H-59ZM493 597L216 230L211 252H535L515 228L495 597H493Z" />
<glyph unicode="&#xc7;" horiz-adv-x="674" d="M383 -9Q293 -9 224 25T115 130T76 308Q76 394 101 468T173 597T289 683T444 714Q517 714 577 691T676 626L635 551Q595 591 548 610T441 630Q357 630 298 589T207 475T175 310Q175 226 200 174T274 99T392 75Q445
75 491 93T586 151L618 78Q587 50 550 31T470 1T383 -9ZM348 -193Q321 -193 297 -188T257 -173L276 -126Q293 -135 309 -139T348 -143Q376 -143 392 -134T409 -105Q409 -94 400 -88T374 -81Q364 -81 354 -82T327 -88L312 -72L341 20H396L371 -56L346 -48Q358 -45
370 -43T392 -41Q415 -41 432 -48T459 -69T469 -104Q469 -144 435 -168T348 -193Z" />
<glyph unicode="&#xc8;" horiz-adv-x="586" d="M47 0L158 705H609L597 629H236L199 396H539L527 320H187L148 76H509L497 0H47ZM375 765L240 937H338L443 765H375Z" />
<glyph unicode="&#xc9;" horiz-adv-x="586" d="M47 0L158 705H609L597 629H236L199 396H539L527 320H187L148 76H509L497 0H47ZM375 765L506 937H608L443 765H375Z" />
<glyph unicode="&#xca;" horiz-adv-x="586" d="M47 0L158 705H609L597 629H236L199 396H539L527 320H187L148 76H509L497 0H47ZM237 765L377 937H460L566 765H499L415 880L304 765H237Z" />
<glyph unicode="&#xcb;" horiz-adv-x="586" d="M47 0L158 705H609L597 629H236L199 396H539L527 320H187L148 76H509L497 0H47ZM456 802L472 895H564L549 802H456ZM279 802L294 895H387L372 802H279Z" />
<glyph unicode="&#xcc;" horiz-adv-x="262" d="M46 0L158 705H251L139 0H46ZM181 765L46 937H144L249 765H181Z" />
<glyph unicode="&#xcd;" horiz-adv-x="262" d="M46 0L158 705H251L139 0H46ZM181 765L312 937H414L249 765H181Z" />
<glyph unicode="&#xce;" horiz-adv-x="262" d="M46 0L158 705H251L139 0H46ZM43 765L183 937H266L372 765H305L221 880L110 765H43Z" />
<glyph unicode="&#xcf;" horiz-adv-x="262" d="M46 0L158 705H251L139 0H46ZM262 802L278 895H370L355 802H262ZM85 802L100 895H193L178 802H85Z" />
<glyph unicode="&#xd0;" horiz-adv-x="747" d="M46 0L158 705H369Q531 705 619 628T707 409Q707 324 683 250T610 120T485 32T307 0H46ZM151 79H309Q390 79 447 104T540 175T593 280T610 408Q610 514 550 570T369 626H238L151 79ZM9 322L21 393H396L385 322H9Z" />
<glyph unicode="&#xd1;" horiz-adv-x="741" d="M46 0L158 705H229L572 115H550L643 705H729L617 0H547L204 590H226L132 0H46ZM289 780L239 783Q247 828 265 858T309 904T369 920Q398 920 424 907T473 880Q493 867 511 857T548 847Q578 847 596 866T624 923L674
920Q663 855 629 819T545 783Q515 783 490 796T441 824Q422 837 403 847T366 857Q336 857 318 838T289 780Z" />
<glyph unicode="&#xd2;" horiz-adv-x="771" d="M371 -9Q281 -9 215 26T112 129T75 295Q75 384 99 460T169 594T282 682T435 714Q525 714 591 679T694 576T731 411Q731 321 707 245T637 111T524 23T371 -9ZM373 73Q458 73 515 117T603 237T634 410Q634 522 581
577T432 632Q348 632 291 589T203 469T172 296Q172 183 226 128T373 73ZM424 765L289 937H387L492 765H424Z" />
<glyph unicode="&#xd3;" horiz-adv-x="771" d="M371 -9Q281 -9 215 26T112 129T75 295Q75 384 99 460T169 594T282 682T435 714Q525 714 591 679T694 576T731 411Q731 321 707 245T637 111T524 23T371 -9ZM373 73Q458 73 515 117T603 237T634 410Q634 522 581
577T432 632Q348 632 291 589T203 469T172 296Q172 183 226 128T373 73ZM424 765L555 937H657L492 765H424Z" />
<glyph unicode="&#xd4;" horiz-adv-x="771" d="M371 -9Q281 -9 215 26T112 129T75 295Q75 384 99 460T169 594T282 682T435 714Q525 714 591 679T694 576T731 411Q731 321 707 245T637 111T524 23T371 -9ZM373 73Q458 73 515 117T603 237T634 410Q634 522 581
577T432 632Q348 632 291 589T203 469T172 296Q172 183 226 128T373 73ZM286 765L426 937H509L615 765H548L464 880L353 765H286Z" />
<glyph unicode="&#xd5;" horiz-adv-x="771" d="M371 -9Q281 -9 215 26T112 129T75 295Q75 384 99 460T169 594T282 682T435 714Q525 714 591 679T694 576T731 411Q731 321 707 245T637 111T524 23T371 -9ZM373 73Q458 73 515 117T603 237T634 410Q634 522 581
577T432 632Q348 632 291 589T203 469T172 296Q172 183 226 128T373 73ZM294 780L244 783Q252 828 270 858T314 904T374 920Q403 920 429 907T478 880Q498 867 516 857T553 847Q583 847 601 866T629 923L679 920Q668 855 634 819T550 783Q520 783 495 796T446 824Q427
837 408 847T371 857Q341 857 323 838T294 780Z" />
<glyph unicode="&#xd6;" horiz-adv-x="771" d="M371 -9Q281 -9 215 26T112 129T75 295Q75 384 99 460T169 594T282 682T435 714Q525 714 591 679T694 576T731 411Q731 321 707 245T637 111T524 23T371 -9ZM373 73Q458 73 515 117T603 237T634 410Q634 522 581
577T432 632Q348 632 291 589T203 469T172 296Q172 183 226 128T373 73ZM505 802L521 895H613L598 802H505ZM328 802L343 895H436L421 802H328Z" />
<glyph unicode="&#xd7;" horiz-adv-x="600" d="M103 50L56 98L259 287L91 471L140 519L310 333L512 519L559 471L355 284L524 98L475 50L305 236L103 50Z" />
<glyph unicode="&#xd8;" horiz-adv-x="771" d="M371 -9Q281 -9 215 26T112 129T75 295Q75 384 99 460T169 594T282 682T435 714Q525 714 591 679T694 576T731 411Q731 321 707 245T637 111T524 23T371 -9ZM373 73Q458 73 515 117T603 237T634 410Q634 522 581
577T432 632Q348 632 291 589T203 469T172 296Q172 183 226 128T373 73ZM152 -41L98 -2L170 95L200 135L552 610L582 651L654 747L708 708L636 611L606 570L254 95L224 55L152 -41Z" />
<glyph unicode="&#xd9;" horiz-adv-x="730" d="M337 -9Q270 -9 219 10T134 67T88 164T89 299L153 705H246L180 291Q163 183 204 128T342 73Q437 73 491 121T562 274L630 705H723L654 272Q640 179 602 117T498 23T337 -9ZM414 765L279 937H377L482 765H414Z" />
<glyph unicode="&#xda;" horiz-adv-x="730" d="M337 -9Q270 -9 219 10T134 67T88 164T89 299L153 705H246L180 291Q163 183 204 128T342 73Q437 73 491 121T562 274L630 705H723L654 272Q640 179 602 117T498 23T337 -9ZM414 765L545 937H647L482 765H414Z" />
<glyph unicode="&#xdb;" horiz-adv-x="730" d="M337 -9Q270 -9 219 10T134 67T88 164T89 299L153 705H246L180 291Q163 183 204 128T342 73Q437 73 491 121T562 274L630 705H723L654 272Q640 179 602 117T498 23T337 -9ZM276 765L416 937H499L605 765H538L454
880L343 765H276Z" />
<glyph unicode="&#xdc;" horiz-adv-x="730" d="M337 -9Q270 -9 219 10T134 67T88 164T89 299L153 705H246L180 291Q163 183 204 128T342 73Q437 73 491 121T562 274L630 705H723L654 272Q640 179 602 117T498 23T337 -9ZM495 802L511 895H603L588 802H495ZM318
802L333 895H426L411 802H318Z" />
<glyph unicode="&#xdd;" horiz-adv-x="601" d="M215 0L273 365L283 303L57 705H158L330 397H307L578 705H689L335 303L366 365L308 0H215ZM341 765L472 937H574L409 765H341Z" />
<glyph unicode="&#xde;" horiz-adv-x="638" d="M46 0L158 705H251L231 580H398Q471 580 522 559T600 495T627 390Q627 317 597 264T507 182T360 153H163L139 0H46ZM175 228H366Q449 228 492 267T536 383Q536 446 499 475T389 504H219L175 228Z" />
<glyph unicode="&#xdf;" horiz-adv-x="624" d="M386 -9Q347 -9 312 -1T246 21T195 54L230 115Q263 89 302 76T385 62Q436 62 464 81T493 137Q493 153 485 167T457 194T400 220Q334 243 307 271T280 343Q280 370 289 391T319 434T377 484Q407 507 424 528T442 581Q442
599 434 613T408 635T366 644Q297 644 257 605T203 489L126 0H35L111 479Q123 554 154 606T238 686T369 714Q419 714 455 698T510 653T529 591Q529 559 518 535T487 491T439 447Q415 428 399 414T374 385T366 354Q366 339 374 327T402 303T454 280Q514 259 546
229T578 144Q578 96 554 62T486 9T386 -9Z" />
<glyph unicode="&#xe0;" horiz-adv-x="533" d="M198 -9Q155 -9 119 10T60 62T37 138Q37 190 66 221T156 268T312 284H393L384 226H322Q249 226 207 219T147 193T128 144Q128 102 156 80T222 57Q257 57 287 73T339 118T367 190L386 311Q395 366 371 395T285 425Q241
425 200 413T120 373L96 439Q120 457 152 469T222 489T296 496Q367 496 408 470T465 397T470 287L424 0H338L355 109H365Q352 69 326 43T266 4T198 -9ZM283 552L142 754H236L347 552H283Z" />
<glyph unicode="&#xe1;" horiz-adv-x="533" d="M198 -9Q155 -9 119 10T60 62T37 138Q37 190 66 221T156 268T312 284H393L384 226H322Q249 226 207 219T147 193T128 144Q128 102 156 80T222 57Q257 57 287 73T339 118T367 190L386 311Q395 366 371 395T285 425Q241
425 200 413T120 373L96 439Q120 457 152 469T222 489T296 496Q367 496 408 470T465 397T470 287L424 0H338L355 109H365Q352 69 326 43T266 4T198 -9ZM284 552L418 754H515L349 552H284Z" />
<glyph unicode="&#xe2;" horiz-adv-x="533" d="M198 -9Q155 -9 119 10T60 62T37 138Q37 190 66 221T156 268T312 284H393L384 226H322Q249 226 207 219T147 193T128 144Q128 102 156 80T222 57Q257 57 287 73T339 118T367 190L386 311Q395 366 371 395T285 425Q241
425 200 413T120 373L96 439Q120 457 152 469T222 489T296 496Q367 496 408 470T465 397T470 287L424 0H338L355 109H365Q352 69 326 43T266 4T198 -9ZM162 552L293 754H377L466 552H405L331 696L224 552H162Z" />
<glyph unicode="&#xe3;" horiz-adv-x="533" d="M198 -9Q155 -9 119 10T60 62T37 138Q37 190 66 221T156 268T312 284H393L384 226H322Q249 226 207 219T147 193T128 144Q128 102 156 80T222 57Q257 57 287 73T339 118T367 190L386 311Q395 366 371 395T285 425Q241
425 200 413T120 373L96 439Q120 457 152 469T222 489T296 496Q367 496 408 470T465 397T470 287L424 0H338L355 109H365Q352 69 326 43T266 4T198 -9ZM188 589L139 592Q149 657 180 693T257 729Q285 729 304 715T339 685Q352 673 365 664T395 655Q421 655 438
675T463 732L513 729Q503 663 472 628T395 592Q368 592 349 605T313 635Q300 647 287 656T257 665Q232 665 215 646T188 589Z" />
<glyph unicode="&#xe4;" horiz-adv-x="533" d="M198 -9Q155 -9 119 10T60 62T37 138Q37 190 66 221T156 268T312 284H393L384 226H322Q249 226 207 219T147 193T128 144Q128 102 156 80T222 57Q257 57 287 73T339 118T367 190L386 311Q395 366 371 395T285 425Q241
425 200 413T120 373L96 439Q120 457 152 469T222 489T296 496Q367 496 408 470T465 397T470 287L424 0H338L355 109H365Q352 69 326 43T266 4T198 -9ZM369 606L382 699H475L461 606H369ZM191 606L205 699H298L284 606H191Z" />
<glyph unicode="&#xe5;" horiz-adv-x="533" d="M198 -9Q155 -9 119 10T60 62T37 138Q37 190 66 221T156 268T312 284H393L384 226H322Q249 226 207 219T147 193T128 144Q128 102 156 80T222 57Q257 57 287 73T339 118T367 190L386 311Q395 366 371 395T285 425Q241
425 200 413T120 373L96 439Q120 457 152 469T222 489T296 496Q367 496 408 470T465 397T470 287L424 0H338L355 109H365Q352 69 326 43T266 4T198 -9ZM335 546Q302 546 275 562T231 604T215 664Q215 697 231 723T274 765T335 781Q370 781 397 765T439 723T455
663Q455 631 440 605T397 562T335 546ZM335 593Q366 593 386 613T406 663Q406 694 386 714T335 734Q305 734 285 714T265 664Q265 633 285 613T335 593Z" />
<glyph unicode="&#xe6;" horiz-adv-x="862" d="M211 -9Q166 -9 127 8T62 58T37 138Q37 190 66 221T156 268T312 283H393L384 226H323Q250 226 208 218T147 192T128 143Q128 102 156 80T222 58Q257 58 287 72T339 114T367 184L387 304Q397 364 372 393T285 423Q241
423 200 411T120 372L96 439Q120 457 152 469T222 489T296 496Q366 496 407 466T459 379H428Q460 433 512 464T633 496Q710 496 755 461T816 370T823 250L820 226H441L449 283H767L749 267Q756 312 746 349T709 408T632 430Q580 430 546 407T492 347T466 270L462
245Q448 162 487 113T606 63Q652 63 691 76T763 117L791 56Q757 25 706 8T600 -9Q543 -9 500 9T428 60T389 141H415Q400 90 370 57T298 7T211 -9Z" />
<glyph unicode="&#xe7;" horiz-adv-x="465" d="M261 -9Q187 -9 139 18T67 95T43 208Q43 262 58 313T106 406T188 471T307 496Q356 496 400 481T470 438L439 374Q414 398 382 410T311 423Q264 423 231 405T177 355T146 287T136 209Q136 143 168 104T272 64Q302
64 335 76T397 113L422 47Q403 29 376 17T320 -2T261 -9ZM220 -193Q193 -193 169 -188T129 -173L148 -126Q165 -135 181 -139T220 -143Q248 -143 264 -134T281 -105Q281 -94 272 -88T246 -81Q236 -81 226 -82T199 -88L184 -72L213 20H268L243 -56L218 -48Q230 -45
242 -43T264 -41Q287 -41 304 -48T331 -69T341 -104Q341 -144 307 -168T220 -193Z" />
<glyph unicode="&#xe8;" horiz-adv-x="535" d="M272 -9Q202 -9 151 17T71 92T43 207Q43 287 75 352T166 457T305 496Q382 496 427 461T488 369T495 246L492 223H114L122 281H440L422 267Q429 313 419 349T381 408T304 430Q252 430 217 407T163 347T137 270L132
245Q124 190 138 149T188 86T278 63Q324 63 363 76T435 117L462 56Q429 25 378 8T272 -9ZM291 552L150 754H244L355 552H291Z" />
<glyph unicode="&#xe9;" horiz-adv-x="535" d="M272 -9Q202 -9 151 17T71 92T43 207Q43 287 75 352T166 457T305 496Q382 496 427 461T488 369T495 246L492 223H114L122 281H440L422 267Q429 313 419 349T381 408T304 430Q252 430 217 407T163 347T137 270L132
245Q124 190 138 149T188 86T278 63Q324 63 363 76T435 117L462 56Q429 25 378 8T272 -9ZM292 552L426 754H523L357 552H292Z" />
<glyph unicode="&#xea;" horiz-adv-x="535" d="M272 -9Q202 -9 151 17T71 92T43 207Q43 287 75 352T166 457T305 496Q382 496 427 461T488 369T495 246L492 223H114L122 281H440L422 267Q429 313 419 349T381 408T304 430Q252 430 217 407T163 347T137 270L132
245Q124 190 138 149T188 86T278 63Q324 63 363 76T435 117L462 56Q429 25 378 8T272 -9ZM170 552L301 754H385L474 552H413L339 696L232 552H170Z" />
<glyph unicode="&#xeb;" horiz-adv-x="535" d="M272 -9Q202 -9 151 17T71 92T43 207Q43 287 75 352T166 457T305 496Q382 496 427 461T488 369T495 246L492 223H114L122 281H440L422 267Q429 313 419 349T381 408T304 430Q252 430 217 407T163 347T137 270L132
245Q124 190 138 149T188 86T278 63Q324 63 363 76T435 117L462 56Q429 25 378 8T272 -9ZM377 606L390 699H483L469 606H377ZM199 606L213 699H306L292 606H199Z" />
<glyph unicode="&#xec;" horiz-adv-x="237" d="M35 0L112 487H203L126 0H35ZM135 552L-6 754H88L199 552H135Z" />
<glyph unicode="&#xed;" horiz-adv-x="237" d="M35 0L112 487H203L126 0H35ZM136 552L270 754H367L201 552H136Z" />
<glyph unicode="&#xee;" horiz-adv-x="237" d="M35 0L112 487H203L126 0H35ZM14 552L145 754H229L318 552H257L183 696L76 552H14Z" />
<glyph unicode="&#xef;" horiz-adv-x="237" d="M35 0L112 487H203L126 0H35ZM221 606L234 699H327L313 606H221ZM43 606L57 699H150L136 606H43Z" />
<glyph unicode="&#xf0;" horiz-adv-x="564" d="M255 -9Q194 -9 145 15T68 85T40 189Q40 267 72 326T161 418T288 452Q335 452 373 436T435 388T464 303L445 302Q451 397 421 471T330 593L346 590L184 520L162 568L296 625L295 615Q273 628 248 638T196 653L218
713Q263 703 301 687T371 649L354 650L498 713L520 666L401 614L403 624Q468 568 497 489T527 315Q527 251 511 193T462 89T377 17T255 -9ZM262 64Q308 64 344 86T403 150T425 252Q425 313 391 346T295 380Q250 380 213 358T154 294T132 192Q132 131 167 98T262
64Z" />
<glyph unicode="&#xf1;" horiz-adv-x="572" d="M35 0L112 487H201L184 379H175Q200 435 247 465T362 496Q416 496 452 475T504 408T509 294L462 0H371L418 293Q425 337 418 365T389 408T332 422Q285 422 251 403T196 348T168 263L126 0H35ZM205 589L156 592Q166
657 197 693T274 729Q302 729 321 715T356 685Q369 673 382 664T412 655Q438 655 455 675T480 732L530 729Q520 663 489 628T412 592Q385 592 366 605T330 635Q317 647 304 656T274 665Q249 665 232 646T205 589Z" />
<glyph unicode="&#xf2;" horiz-adv-x="560" d="M258 -9Q191 -9 143 17T69 91T43 206Q43 269 61 322T115 414T197 474T302 496Q370 496 418 470T492 396T518 280Q518 218 499 165T446 73T364 13T258 -9ZM261 63Q314 63 350 92T406 172T426 284Q426 352 393 388T300
424Q247 424 210 395T154 315T135 203Q135 135 168 99T261 63ZM298 552L157 754H251L362 552H298Z" />
<glyph unicode="&#xf3;" horiz-adv-x="560" d="M258 -9Q191 -9 143 17T69 91T43 206Q43 269 61 322T115 414T197 474T302 496Q370 496 418 470T492 396T518 280Q518 218 499 165T446 73T364 13T258 -9ZM261 63Q314 63 350 92T406 172T426 284Q426 352 393 388T300
424Q247 424 210 395T154 315T135 203Q135 135 168 99T261 63ZM299 552L433 754H530L364 552H299Z" />
<glyph unicode="&#xf4;" horiz-adv-x="560" d="M258 -9Q191 -9 143 17T69 91T43 206Q43 269 61 322T115 414T197 474T302 496Q370 496 418 470T492 396T518 280Q518 218 499 165T446 73T364 13T258 -9ZM261 63Q314 63 350 92T406 172T426 284Q426 352 393 388T300
424Q247 424 210 395T154 315T135 203Q135 135 168 99T261 63ZM177 552L308 754H392L481 552H420L346 696L239 552H177Z" />
<glyph unicode="&#xf5;" horiz-adv-x="560" d="M258 -9Q191 -9 143 17T69 91T43 206Q43 269 61 322T115 414T197 474T302 496Q370 496 418 470T492 396T518 280Q518 218 499 165T446 73T364 13T258 -9ZM261 63Q314 63 350 92T406 172T426 284Q426 352 393 388T300
424Q247 424 210 395T154 315T135 203Q135 135 168 99T261 63ZM203 589L154 592Q164 657 195 693T272 729Q300 729 319 715T354 685Q367 673 380 664T410 655Q436 655 453 675T478 732L528 729Q518 663 487 628T410 592Q383 592 364 605T328 635Q315 647 302 656T272
665Q247 665 230 646T203 589Z" />
<glyph unicode="&#xf6;" horiz-adv-x="560" d="M258 -9Q191 -9 143 17T69 91T43 206Q43 269 61 322T115 414T197 474T302 496Q370 496 418 470T492 396T518 280Q518 218 499 165T446 73T364 13T258 -9ZM261 63Q314 63 350 92T406 172T426 284Q426 352 393 388T300
424Q247 424 210 395T154 315T135 203Q135 135 168 99T261 63ZM384 606L397 699H490L476 606H384ZM206 606L220 699H313L299 606H206Z" />
<glyph unicode="&#xf7;" horiz-adv-x="600" d="M58 253L68 321H556L546 253H58ZM217 43L232 133H322L307 43H217ZM280 440L294 530H384L370 440H280Z" />
<glyph unicode="&#xf8;" horiz-adv-x="560" d="M258 -9Q191 -9 143 17T69 92T43 207Q43 270 61 322T115 414T197 474T302 496Q370 496 418 470T492 396T518 280Q518 218 499 165T446 73T364 13T258 -9ZM262 59Q316 59 354 89T412 170T432 285Q432 355 397 391T298
428Q244 428 206 399T148 318T128 203Q128 132 163 96T262 59ZM106 -43L61 -10L456 528L501 496L106 -43Z" />
<glyph unicode="&#xf9;" horiz-adv-x="565" d="M208 -9Q156 -9 120 12T68 79T63 194L110 487H201L154 194Q147 151 154 122T182 79T238 65Q282 65 315 85T369 140T397 224L439 487H530L453 0H364L381 108H391Q366 52 319 22T208 -9ZM294 553L153 755H247L358 553H294Z" />
<glyph unicode="&#xfa;" horiz-adv-x="565" d="M208 -9Q156 -9 120 12T68 79T63 194L110 487H201L154 194Q147 151 154 122T182 79T238 65Q282 65 315 85T369 140T397 224L439 487H530L453 0H364L381 108H391Q366 52 319 22T208 -9ZM295 553L429 755H526L360 553H295Z" />
<glyph unicode="&#xfb;" horiz-adv-x="565" d="M208 -9Q156 -9 120 12T68 79T63 194L110 487H201L154 194Q147 151 154 122T182 79T238 65Q282 65 315 85T369 140T397 224L439 487H530L453 0H364L381 108H391Q366 52 319 22T208 -9ZM173 553L304 755H388L477 553H416L342
697L235 553H173Z" />
<glyph unicode="&#xfc;" horiz-adv-x="565" d="M208 -9Q156 -9 120 12T68 79T63 194L110 487H201L154 194Q147 151 154 122T182 79T238 65Q282 65 315 85T369 140T397 224L439 487H530L453 0H364L381 108H391Q366 52 319 22T208 -9ZM380 607L393 700H486L472 607H380ZM202
607L216 700H309L295 607H202Z" />
<glyph unicode="&#xfd;" horiz-adv-x="517" d="M60 -180L186 29L180 -9L45 487H138L241 70H213L452 487H550L154 -180H60ZM263 552L397 754H494L328 552H263Z" />
<glyph unicode="&#xfe;" horiz-adv-x="587" d="M6 -180L146 705H237L187 387L176 386Q194 420 220 445T282 483T358 496Q414 496 456 471T521 399T545 287Q545 206 516 139T433 32T300 -9Q242 -9 197 20T135 107H143L97 -180H6ZM288 63Q341 63 377 92T433 172T453
284Q453 352 420 388T327 424Q274 424 237 395T181 315T162 203Q162 135 195 99T288 63Z" />
<glyph unicode="&#xff;" horiz-adv-x="517" d="M60 -180L186 29L180 -9L45 487H138L241 70H213L452 487H550L154 -180H60ZM348 606L361 699H454L440 606H348ZM170 606L184 699H277L263 606H170Z" />
<glyph unicode="&#x2013;" horiz-adv-x="500" d="M-1 238L8 296H508L499 238H-1Z" />
<glyph unicode="&#x2014;" horiz-adv-x="1000" d="M-1 238L8 296H1008L999 238H-1Z" />
<glyph unicode="&#x2018;" horiz-adv-x="233" d="M99 482L112 568Q118 597 126 621T150 667T194 711L230 674Q210 655 199 640T181 608T171 574L148 593H227L210 482H99Z" />
<glyph unicode="&#x2019;" horiz-adv-x="233" d="M149 476L113 514Q135 533 146 548T163 580T172 614L196 595H116L134 705H245L231 620Q227 591 219 567T194 521T149 476Z" />
<glyph unicode="&#x201a;" horiz-adv-x="233" d="M55 -119L19 -80Q40 -62 51 -46T69 -15T78 20L101 0H22L40 111H151L137 25Q132 -4 124 -28T99 -74T55 -119Z" />
<glyph unicode="&#x201c;" horiz-adv-x="405" d="M99 482L112 568Q118 597 126 621T150 667T194 711L230 674Q210 655 199 640T181 608T171 574L148 593H227L210 482H99ZM271 482L284 568Q290 597 298 621T322 667T366 711L402 674Q382 655 371 640T353 608T343
574L320 593H399L382 482H271Z" />
<glyph unicode="&#x201d;" horiz-adv-x="405" d="M149 476L113 514Q135 533 146 548T163 580T172 614L196 595H116L134 705H245L231 620Q227 591 219 567T194 521T149 476ZM321 476L285 514Q307 533 318 548T335 580T344 614L368 595H288L306 705H417L403 620Q399
591 391 567T366 521T321 476Z" />
<glyph unicode="&#x201e;" horiz-adv-x="405" d="M55 -119L19 -80Q40 -62 51 -46T69 -15T78 20L101 0H22L40 111H151L137 25Q132 -4 124 -28T99 -74T55 -119ZM227 -119L191 -80Q212 -62 223 -46T241 -15T250 20L273 0H194L212 111H323L309 25Q304 -4 296 -28T271
-74T227 -119Z" />
<glyph unicode="&#x2022;" horiz-adv-x="524" d="M265 88Q216 88 175 111T109 175T84 265Q84 311 107 351T172 417T265 443Q313 443 354 420T421 357T446 265Q446 216 422 176T356 112T265 88Z" />
<glyph unicode="&#x2039;" horiz-adv-x="266" d="M127 83L58 243L65 288L188 449L251 419L142 262L193 108L127 83Z" />
<glyph unicode="&#x203a;" horiz-adv-x="266" d="M84 83L21 113L131 270L80 423L146 449L214 288L207 243L84 83Z" />
</font>
</defs>
</svg>
